<svg width="124" height="124" viewBox="0 0 124 124" fill="none" xmlns="http://www.w3.org/2000/svg">
<g id="Group 22">
<path id="Stroke 1" d="M34.168 29.7607H88.834" stroke="#DE3931" stroke-width="2.5" stroke-linecap="round"/>
<path id="Stroke 2" d="M41.0898 41.6738H81.9078" stroke="#DE3931" stroke-width="2.5" stroke-linecap="round"/>
<g id="Group 21">
<path id="Fill 3" fill-rule="evenodd" clip-rule="evenodd" d="M61.4981 53.2021C49.0261 53.2021 38.9121 63.3141 38.9121 75.7861C38.9121 88.2621 49.0261 98.3721 61.4981 98.3721C73.9721 98.3721 84.0841 88.2621 84.0841 75.7861C84.0841 63.3141 73.9721 53.2021 61.4981 53.2021ZM61.4981 58.2021C71.1961 58.2021 79.0841 66.0901 79.0841 75.7861C79.0841 85.4841 71.1961 93.3721 61.4981 93.3721C51.8001 93.3721 43.9121 85.4841 43.9121 75.7861C43.9121 66.0901 51.8001 58.2021 61.4981 58.2021Z" fill="#DE3931"/>
<path id="Fill 5" fill-rule="evenodd" clip-rule="evenodd" d="M61.4989 63.8379C54.8969 63.8379 49.5469 69.1859 49.5469 75.7879C49.5469 82.3859 54.8969 87.7359 61.4989 87.7359C68.1009 87.7359 73.4509 82.3859 73.4509 75.7879C73.4509 69.1859 68.1009 63.8379 61.4989 63.8379ZM61.4989 68.8379C65.3329 68.8379 68.4509 71.9559 68.4509 75.7879C68.4509 79.6199 65.3329 82.7359 61.4989 82.7359C57.6649 82.7359 54.5469 79.6199 54.5469 75.7879C54.5469 71.9559 57.6649 68.8379 61.4989 68.8379Z" fill="#DE3931"/>
<path id="Stroke 7" d="M65.2734 96.3202L76.4814 120.104L79.5454 107.594L91.2534 112.808L78.8334 86.8862" stroke="#DE3931" stroke-width="2.5" stroke-linejoin="round"/>
<path id="Stroke 9" d="M57.7261 96.3202L46.5181 120.104L43.4541 107.594L31.7461 112.808L40.5121 94.7842" stroke="#DE3931" stroke-width="2.5" stroke-linejoin="round"/>
<path id="Stroke 11" d="M33.028 89.167H2.5V2.50098H120.5V89.167H90.58" stroke="#DE3931" stroke-width="2.5"/>
<path id="Stroke 13" d="M13.2891 27.4433V12.8613H27.8671" stroke="#DE3931" stroke-width="2.5"/>
<path id="Stroke 15" d="M95.1289 12.8613H109.711V27.4433" stroke="#DE3931" stroke-width="2.5"/>
<path id="Stroke 17" d="M109.711 64.2246V78.8066H95.1289" stroke="#DE3931" stroke-width="2.5"/>
<path id="Stroke 19" d="M27.8671 78.8056H13.2891V64.2236" stroke="#DE3931" stroke-width="2.5"/>
</g>
</g>
</svg>
